# xmcd CD database file
#
# Track frame offsets:
#	182
#	13412
#	23525
#	34887
#	44012
#	53770
#	64352
#	74362
#	86887
#	97825
#	117512
#	129512
#	140232
#	150600
#
# Disc length: 2172 seconds
#
# Revision: 1
# Processed by: cddbd v1.5.1PL0 Copyright (c) Steve Scherf et al.
# Submitted via: CDex 1.51
#
DISCID=cc087a0e
DTITLE=Various Artist - Those were the Days  (Vol. 2)
DYEAR=1993
DGENRE=Country
TTITLE0=Kenny Rogers - Ruby Don't Take Your Love To Town
TTITLE1=Elvis Presley - Wear My Ring Around Your Neck
TTITLE2=Marty Robbins - A White Sport Coat And A Pink Carnation
TTITLE3=Frankie Laine - Rawhide
TTITLE4=Dolly Parton - Release Me
TTITLE5=Jim Reeves - He'll Have To Go
TTITLE6=Conway Twitty - It's Only Make Believe
TTITLE7=Kenny Rogers - Ruben James
TTITLE8=Elvis Presley - Have I Told You Lately That I Love You
TTITLE9=Marty Robbins - El Paso
TTITLE10=Frankie Laine - High Noon (Do Not Forsake Me)
TTITLE11=Dolly Parton - (It Wasn't God Who Made) Honky Tonk Angels
TTITLE12=Jim Reeves - Am I Losing You
TTITLE13=Conway Twitty - Danny Boy
EXTD=YEAR: 1993
EXTT0=
EXTT1=
EXTT2=
EXTT3=
EXTT4=
EXTT5=
EXTT6=
EXTT7=
EXTT8=
EXTT9=
EXTT10=
EXTT11=
EXTT12=
EXTT13=
PLAYORDER=
